<svg width="86" height="31" viewBox="0 0 86 31" fill="none" xmlns="http://www.w3.org/2000/svg">
<rect x="0.5" y="0.5" width="85" height="30" rx="15" stroke="white"/>
<rect x="0.5" y="0.5" width="85" height="30" rx="15" stroke="black" stroke-opacity="0.2"/>
<path d="M21.5 23.8333H26.5C30.6667 23.8333 32.3333 22.1667 32.3333 18V13C32.3333 8.83332 30.6667 7.16666 26.5 7.16666H21.5C17.3333 7.16666 15.6667 8.83332 15.6667 13V18C15.6667 22.1667 17.3333 23.8333 21.5 23.8333Z" stroke="#F3F3F3" stroke-width="1.25" stroke-linecap="round" stroke-linejoin="round"/>
<path d="M19.8333 12.375C20.6667 13.2083 22.025 13.2083 22.8667 12.375" stroke="#F3F3F3" stroke-width="1.25" stroke-miterlimit="10" stroke-linecap="round" stroke-linejoin="round"/>
<path d="M25.1333 12.375C25.9667 13.2083 27.325 13.2083 28.1667 12.375" stroke="#F3F3F3" stroke-width="1.25" stroke-miterlimit="10" stroke-linecap="round" stroke-linejoin="round"/>
<path d="M21 16.3333H27C27.4167 16.3333 27.75 16.6667 27.75 17.0833C27.75 19.1583 26.075 20.8333 24 20.8333C21.925 20.8333 20.25 19.1583 20.25 17.0833C20.25 16.6667 20.5833 16.3333 21 16.3333Z" stroke="#F3F3F3" stroke-width="1.25" stroke-miterlimit="10" stroke-linecap="round" stroke-linejoin="round"/>
<path d="M48.784 8.38C48.784 9.788 48.736 10.988 48.672 11.98C49.6 16.188 51.888 19.404 55.52 21.628L54.4 23.1C51.408 21.084 49.296 18.396 48.064 15.02C47.008 18.284 44.816 20.988 41.488 23.132L40.464 21.628C44.752 19.068 46.944 15.484 47.072 10.892C47.072 9.82 47.088 8.988 47.088 8.38H48.784ZM63.792 8.316L65.36 8.732C65.2 9.452 65.04 10.124 64.864 10.764H70.912C70.912 16.332 70.832 19.756 70.672 21.036C70.48 22.412 69.568 23.1 67.936 23.1C67.712 23.1 67.296 23.068 66.72 23.02L66.336 21.532C66.848 21.58 67.28 21.612 67.664 21.612C68.512 21.612 69.008 21.164 69.136 20.284C69.232 19.532 69.28 16.892 69.312 12.364H68.736C68.4 14.924 67.936 16.972 67.328 18.476C66.592 20.172 65.488 21.708 64.048 23.052L63.008 21.724C64.32 20.54 65.296 19.228 65.952 17.756C66.512 16.396 66.944 14.604 67.248 12.364H66.448C65.776 15.756 64.576 18.252 62.832 19.82L61.76 18.572C63.296 17.26 64.368 15.196 64.96 12.364H64.288C63.888 13.308 63.424 14.108 62.896 14.748L61.68 13.708C62.672 12.46 63.376 10.652 63.792 8.316ZM58.416 13.132C58.288 13.884 58.144 14.62 57.968 15.324L56.496 14.908C56.928 13.228 57.168 11.452 57.232 9.596L58.72 9.708C58.688 10.316 58.656 10.924 58.608 11.532H59.296V8.38H60.928V11.532H62.016V13.132H60.928V16.332C61.264 16.172 61.6 16.012 61.952 15.852V17.42C61.6 17.58 61.264 17.724 60.928 17.884V23.164H59.296V18.54C58.576 18.796 57.84 19.052 57.088 19.276L56.688 17.66C57.568 17.484 58.432 17.244 59.296 16.956V13.132H58.416Z" fill="white"/>
</svg>
